# xmcd CD database file
#
# Track frame offsets:
#	9075
#	34220
#	54145
#	74940
#	88725
#	108490
#	135470
#	154567
#	172982
#	196635
#
# Disc length: 3159 seconds
#
# Revision: 2
# Processed by: cddbd v1.4PL0 Copyright (c) Steve Scherf et al.
# Submitted via: Feurio! 1.66 - http://www.feurio.com
#
DISCID=810bde0a
DTITLE=David Gray - White Ladder
DYEAR=1900
DGENRE=
TTITLE0=Please Forgive Me
TTITLE1=Babylon
TTITLE2=My oh My
TTITLE3=Were not right
TTITLE4=Nightblindness
TTITLE5=Silver Lining
TTITLE6=White Ladder
TTITLE7=This Years Love
TTITLE8=Sail Away
TTITLE9=Say Hello, Wave Goodbye
EXTD=
EXTT0=
EXTT1=
EXTT2=
EXTT3=
EXTT4=
EXTT5=
EXTT6=
EXTT7=
EXTT8=
EXTT9=
PLAYORDER=
